<mxfile host="app.diagrams.net" agent="Mozilla/5.0 (Macintosh; Intel Mac OS X 10_15_7) AppleWebKit/537.36 (KHTML, like Gecko) Chrome/131.0.0.0 Safari/537.36" version="25.0.3">
  <diagram name="Page-1" id="wUK-TtEetfphESK_Bdzk">
    <mxGraphModel dx="789" dy="575" grid="1" gridSize="10" guides="1" tooltips="1" connect="1" arrows="1" fold="1" page="1" pageScale="1" pageWidth="850" pageHeight="1100" math="0" shadow="0">
      <root>
        <mxCell id="0" />
        <mxCell id="1" parent="0" />
        <mxCell id="qCr9aOYKCGU5F2LXyx9P-3" value="" style="edgeStyle=none;rounded=0;orthogonalLoop=1;jettySize=auto;html=1;" edge="1" parent="1" source="qCr9aOYKCGU5F2LXyx9P-1" target="qCr9aOYKCGU5F2LXyx9P-2">
          <mxGeometry relative="1" as="geometry" />
        </mxCell>
        <mxCell id="qCr9aOYKCGU5F2LXyx9P-1" value="Start" style="rounded=1;whiteSpace=wrap;html=1;" vertex="1" parent="1">
          <mxGeometry x="305" y="110" width="120" height="60" as="geometry" />
        </mxCell>
        <mxCell id="qCr9aOYKCGU5F2LXyx9P-7" value="" style="edgeStyle=none;rounded=0;orthogonalLoop=1;jettySize=auto;html=1;" edge="1" parent="1" source="qCr9aOYKCGU5F2LXyx9P-2" target="qCr9aOYKCGU5F2LXyx9P-6">
          <mxGeometry relative="1" as="geometry" />
        </mxCell>
        <mxCell id="qCr9aOYKCGU5F2LXyx9P-12" value="" style="edgeStyle=none;rounded=0;orthogonalLoop=1;jettySize=auto;html=1;" edge="1" parent="1" source="qCr9aOYKCGU5F2LXyx9P-2" target="qCr9aOYKCGU5F2LXyx9P-6">
          <mxGeometry relative="1" as="geometry" />
        </mxCell>
        <mxCell id="qCr9aOYKCGU5F2LXyx9P-2" value="Generate a random word&amp;nbsp;" style="whiteSpace=wrap;html=1;rounded=1;" vertex="1" parent="1">
          <mxGeometry x="305" y="200" width="120" height="60" as="geometry" />
        </mxCell>
        <mxCell id="qCr9aOYKCGU5F2LXyx9P-9" value="" style="edgeStyle=none;rounded=0;orthogonalLoop=1;jettySize=auto;html=1;" edge="1" parent="1" source="qCr9aOYKCGU5F2LXyx9P-6" target="qCr9aOYKCGU5F2LXyx9P-8">
          <mxGeometry relative="1" as="geometry" />
        </mxCell>
        <mxCell id="qCr9aOYKCGU5F2LXyx9P-6" value="Generate as many blanks as letters in the word" style="whiteSpace=wrap;html=1;rounded=1;" vertex="1" parent="1">
          <mxGeometry x="305" y="290" width="120" height="60" as="geometry" />
        </mxCell>
        <mxCell id="qCr9aOYKCGU5F2LXyx9P-14" value="" style="edgeStyle=none;rounded=0;orthogonalLoop=1;jettySize=auto;html=1;" edge="1" parent="1" source="qCr9aOYKCGU5F2LXyx9P-8" target="qCr9aOYKCGU5F2LXyx9P-13">
          <mxGeometry relative="1" as="geometry" />
        </mxCell>
        <mxCell id="qCr9aOYKCGU5F2LXyx9P-8" value="Ask the player to guess a letter" style="whiteSpace=wrap;html=1;rounded=1;" vertex="1" parent="1">
          <mxGeometry x="305" y="390" width="120" height="60" as="geometry" />
        </mxCell>
        <mxCell id="qCr9aOYKCGU5F2LXyx9P-16" value="" style="edgeStyle=none;rounded=0;orthogonalLoop=1;jettySize=auto;html=1;" edge="1" parent="1" source="qCr9aOYKCGU5F2LXyx9P-13" target="qCr9aOYKCGU5F2LXyx9P-15">
          <mxGeometry relative="1" as="geometry" />
        </mxCell>
        <mxCell id="qCr9aOYKCGU5F2LXyx9P-19" value="YES" style="edgeLabel;html=1;align=center;verticalAlign=middle;resizable=0;points=[];" vertex="1" connectable="0" parent="qCr9aOYKCGU5F2LXyx9P-16">
          <mxGeometry x="-0.0632" y="-1" relative="1" as="geometry">
            <mxPoint y="1" as="offset" />
          </mxGeometry>
        </mxCell>
        <mxCell id="qCr9aOYKCGU5F2LXyx9P-18" value="" style="edgeStyle=none;rounded=0;orthogonalLoop=1;jettySize=auto;html=1;" edge="1" parent="1" source="qCr9aOYKCGU5F2LXyx9P-13" target="qCr9aOYKCGU5F2LXyx9P-17">
          <mxGeometry relative="1" as="geometry" />
        </mxCell>
        <mxCell id="qCr9aOYKCGU5F2LXyx9P-20" value="NO" style="edgeLabel;html=1;align=center;verticalAlign=middle;resizable=0;points=[];" vertex="1" connectable="0" parent="qCr9aOYKCGU5F2LXyx9P-18">
          <mxGeometry x="0.0074" y="2" relative="1" as="geometry">
            <mxPoint as="offset" />
          </mxGeometry>
        </mxCell>
        <mxCell id="qCr9aOYKCGU5F2LXyx9P-13" value="Is the guessed letter in the word?" style="whiteSpace=wrap;html=1;rounded=1;" vertex="1" parent="1">
          <mxGeometry x="305" y="490" width="120" height="60" as="geometry" />
        </mxCell>
        <mxCell id="qCr9aOYKCGU5F2LXyx9P-22" value="" style="edgeStyle=none;rounded=0;orthogonalLoop=1;jettySize=auto;html=1;" edge="1" parent="1" source="qCr9aOYKCGU5F2LXyx9P-15" target="qCr9aOYKCGU5F2LXyx9P-21">
          <mxGeometry relative="1" as="geometry" />
        </mxCell>
        <mxCell id="qCr9aOYKCGU5F2LXyx9P-15" value="Replace the blank with the letter" style="whiteSpace=wrap;html=1;rounded=1;" vertex="1" parent="1">
          <mxGeometry x="190" y="630" width="120" height="60" as="geometry" />
        </mxCell>
        <mxCell id="qCr9aOYKCGU5F2LXyx9P-32" value="" style="edgeStyle=none;rounded=0;orthogonalLoop=1;jettySize=auto;html=1;" edge="1" parent="1" source="qCr9aOYKCGU5F2LXyx9P-17" target="qCr9aOYKCGU5F2LXyx9P-31">
          <mxGeometry relative="1" as="geometry" />
        </mxCell>
        <mxCell id="qCr9aOYKCGU5F2LXyx9P-17" value="Lose a life" style="whiteSpace=wrap;html=1;rounded=1;" vertex="1" parent="1">
          <mxGeometry x="460" y="630" width="120" height="60" as="geometry" />
        </mxCell>
        <mxCell id="qCr9aOYKCGU5F2LXyx9P-24" value="" style="edgeStyle=none;rounded=0;orthogonalLoop=1;jettySize=auto;html=1;" edge="1" parent="1" source="qCr9aOYKCGU5F2LXyx9P-21" target="qCr9aOYKCGU5F2LXyx9P-8">
          <mxGeometry relative="1" as="geometry">
            <mxPoint x="110" y="770" as="targetPoint" />
            <Array as="points">
              <mxPoint x="150" y="770" />
              <mxPoint x="150" y="600" />
              <mxPoint x="150" y="420" />
            </Array>
          </mxGeometry>
        </mxCell>
        <mxCell id="qCr9aOYKCGU5F2LXyx9P-25" value="NO" style="edgeLabel;html=1;align=center;verticalAlign=middle;resizable=0;points=[];" vertex="1" connectable="0" parent="qCr9aOYKCGU5F2LXyx9P-24">
          <mxGeometry x="-0.125" y="-1" relative="1" as="geometry">
            <mxPoint as="offset" />
          </mxGeometry>
        </mxCell>
        <mxCell id="qCr9aOYKCGU5F2LXyx9P-27" value="" style="edgeStyle=none;rounded=0;orthogonalLoop=1;jettySize=auto;html=1;" edge="1" parent="1" source="qCr9aOYKCGU5F2LXyx9P-21" target="qCr9aOYKCGU5F2LXyx9P-26">
          <mxGeometry relative="1" as="geometry" />
        </mxCell>
        <mxCell id="qCr9aOYKCGU5F2LXyx9P-28" value="YES" style="edgeLabel;html=1;align=center;verticalAlign=middle;resizable=0;points=[];" vertex="1" connectable="0" parent="qCr9aOYKCGU5F2LXyx9P-27">
          <mxGeometry x="-0.025" y="4" relative="1" as="geometry">
            <mxPoint as="offset" />
          </mxGeometry>
        </mxCell>
        <mxCell id="qCr9aOYKCGU5F2LXyx9P-21" value="Are all blanks filled?" style="whiteSpace=wrap;html=1;rounded=1;" vertex="1" parent="1">
          <mxGeometry x="190" y="740" width="120" height="60" as="geometry" />
        </mxCell>
        <mxCell id="qCr9aOYKCGU5F2LXyx9P-26" value="Game Ends" style="whiteSpace=wrap;html=1;rounded=1;" vertex="1" parent="1">
          <mxGeometry x="330" y="890" width="120" height="60" as="geometry" />
        </mxCell>
        <mxCell id="qCr9aOYKCGU5F2LXyx9P-34" value="" style="edgeStyle=none;rounded=0;orthogonalLoop=1;jettySize=auto;html=1;" edge="1" parent="1" source="qCr9aOYKCGU5F2LXyx9P-31" target="qCr9aOYKCGU5F2LXyx9P-8">
          <mxGeometry relative="1" as="geometry">
            <mxPoint x="700" y="770" as="targetPoint" />
            <Array as="points">
              <mxPoint x="610" y="770" />
              <mxPoint x="610" y="590" />
              <mxPoint x="610" y="420" />
            </Array>
          </mxGeometry>
        </mxCell>
        <mxCell id="qCr9aOYKCGU5F2LXyx9P-35" value="NO" style="edgeLabel;html=1;align=center;verticalAlign=middle;resizable=0;points=[];" vertex="1" connectable="0" parent="qCr9aOYKCGU5F2LXyx9P-34">
          <mxGeometry x="-0.05" relative="1" as="geometry">
            <mxPoint y="47" as="offset" />
          </mxGeometry>
        </mxCell>
        <mxCell id="qCr9aOYKCGU5F2LXyx9P-37" value="" style="edgeStyle=none;rounded=0;orthogonalLoop=1;jettySize=auto;html=1;" edge="1" parent="1" source="qCr9aOYKCGU5F2LXyx9P-31">
          <mxGeometry relative="1" as="geometry">
            <mxPoint x="420" y="890" as="targetPoint" />
          </mxGeometry>
        </mxCell>
        <mxCell id="qCr9aOYKCGU5F2LXyx9P-38" value="YES" style="edgeLabel;html=1;align=center;verticalAlign=middle;resizable=0;points=[];" vertex="1" connectable="0" parent="qCr9aOYKCGU5F2LXyx9P-37">
          <mxGeometry x="-0.0514" y="2" relative="1" as="geometry">
            <mxPoint as="offset" />
          </mxGeometry>
        </mxCell>
        <mxCell id="qCr9aOYKCGU5F2LXyx9P-31" value="Do they run out of life?" style="whiteSpace=wrap;html=1;rounded=1;" vertex="1" parent="1">
          <mxGeometry x="460" y="740" width="120" height="60" as="geometry" />
        </mxCell>
      </root>
    </mxGraphModel>
  </diagram>
</mxfile>
